<svg xmlns="http://www.w3.org/2000/svg" width="825" height="528.58115" viewBox="0 0 825 528.58115" xmlns:xlink="http://www.w3.org/1999/xlink"><path d="m153.32458,307.67604H7.67542c-4.23224,0-7.67542-3.44336-7.67542-7.67578V65.35182c0-4.23242,3.44318-7.67578,7.67542-7.67578h145.64917c4.23224,0,7.67542,3.44336,7.67542,7.67578v234.64844c0,4.23242-3.44318,7.67578-7.67542,7.67578Z" fill="#d3d3d3" stroke-width="0"/><path d="m319.32458,307.67604h-145.64917c-4.23224,0-7.67542-3.44336-7.67542-7.67578V65.35182c0-4.23242,3.44318-7.67578,7.67542-7.67578h145.64917c4.23224,0,7.67542,3.44336,7.67542,7.67578v234.64844c0,4.23242-3.44318,7.67578-7.67542,7.67578Z" fill="#d3d3d3" stroke-width="0"/><path d="m485.32458,307.67604h-145.64917c-4.23218,0-7.67542-3.44336-7.67542-7.67578V65.35182c0-4.23242,3.44324-7.67578,7.67542-7.67578h145.64917c4.23218,0,7.67542,3.44336,7.67542,7.67578v234.64844c0,4.23242-3.44324,7.67578-7.67542,7.67578Z" fill="#87ccef" stroke-width="0"/><path d="m651.32458,307.67604h-145.64917c-4.23218,0-7.67542-3.44336-7.67542-7.67578V65.35182c0-4.23242,3.44324-7.67578,7.67542-7.67578h145.64917c4.23218,0,7.67542,3.44336,7.67542,7.67578v234.64844c0,4.23242-3.44324,7.67578-7.67542,7.67578Z" fill="#d3d3d3" stroke-width="0"/><path d="m817.32458,307.67604h-145.64917c-4.23218,0-7.67542-3.44336-7.67542-7.67578V65.35182c0-4.23242,3.44324-7.67578,7.67542-7.67578h145.64917c4.23218,0,7.67542,3.44336,7.67542,7.67578v234.64844c0,4.23242-3.44324,7.67578-7.67542,7.67578Z" fill="#d3d3d3" stroke-width="0"/><path d="m527.59072,22.28612l15.65201-12.17843s17.85959,5.56608,18.31995,5.79626,27.71535,63.43454,27.71535,63.43454c0,0-69.81672,35.72967-64.71098,32.24563,5.10574-3.47356,4.04901-50.56558-.70099-56.70711-4.76047-6.15199-.70099-21.57381-.70099-21.57381l4.40475-11.01708h.02091Z" fill="#2f2e43" stroke-width="0"/><polygon points="570.85344 50.76524 549.63536 50.76524 549.63536 84.43377 573.02966 76.74379 570.85344 50.76524" fill="#e7979a" stroke-width="0"/><circle cx="552.53349" cy="36.76632" r="23.3106" fill="#e7979a" stroke-width="0"/><path d="m523.49987,32.51851l5.71257.97302c5.33592-21.34364,17.40973-14.37557,18.5606-14.61621s18.31995,18.55013,16.92843,37.57108c-1.39152,19.02094,23.19551,27.93505,23.19551,27.93505,0,0,8.58977,16.14373.93117,45.36569-7.65861,29.22196,8.5793,39.02538,8.5793,39.02538,32.01548-2.72027,12.76434-47.3745,7.65861-55.49346-5.10574-8.11895-1.6217-22.26434-1.6217-22.26434,7.88877-6.95761-1.39152-22.26434-1.39152-22.26434,0,0,1.63216-20.41247-3.2434-24.35685-4.87556-3.94439-5.10574-13.68504-5.10574-13.68504-8.58977-37.3409-36.65037-30.15312-36.65037-30.15312-35.94938-3.94439-33.55344,31.96314-33.55344,31.96314Z" fill="#2f2e43" stroke-width="0"/><rect x="538.74979" y="473.9741" width="23.26898" height="33.00643" fill="#e69b9e" stroke-width="0"/><path d="m516.08896,526.96343c-2.44673,0-4.62356-.06076-6.26385-.21104-6.18166-.56747-12.07769-5.12837-15.04198-7.79645-1.32888-1.19624-1.75666-3.10751-1.06441-4.75567v-.00054c.49721-1.18268,1.48947-2.06318,2.7226-2.41581l16.33126-4.66561,26.44342-17.84161.29458.52895c.11013.19747,2.7066,4.87448,3.57651,8.03678.33066,1.20275.24359,2.20477-.25851,2.97785-.34884.53709-.83167.84903-1.22581,1.02643.47904.50291,1.97773,1.51741,6.59967,2.25522,6.73936,1.07146,8.16373-5.91881,8.22096-6.21611l.04503-.23328.19992-.12966c3.21113-2.06752,5.18452-3.00552,5.86755-2.8075.4256.12749,1.13765.34016,3.05082,19.37855.19368.59568,1.53721,4.97864.62308,9.16738-.99388,4.55819-20.90274,2.98979-24.88397,2.62902-.11311.01411-15.02217,1.07309-25.23687,1.07309Z" fill="#36344e" stroke-width="0"/><rect x="615.49102" y="451.70449" width="23.26898" height="33.00643" transform="translate(-152.76168 402.77971) rotate(-31.94922)" fill="#e69b9e" stroke-width="0"/><path d="m602.04547,522.43942c-2.72938,0-5.2404-.32822-7.02879-.64505-1.76072-.31194-3.13491-1.70729-3.41973-3.47208h0c-.20426-1.26677.17198-2.53896,1.03213-3.49053l11.38815-12.60148,12.99643-29.13076.52949.29241c.19802.10905,4.87665,2.70388,7.28784,4.92656.91712.84578,1.37337,1.74201,1.35655,2.66374-.01194.64016-.25634,1.16043-.49694,1.51904.6719.17469,2.48064.24142,6.79334-1.57817,6.28474-2.65289,3.79542-9.34207,3.68637-9.62526l-.08545-.22189.10118-.21538c1.62998-3.45309,2.80506-5.29926,3.4927-5.48697.42886-.11881,1.14687-.3114,12.84344,14.8285.47931.40309,3.93864,3.41132,5.37983,7.44924,1.56813,4.39381-16.15467,13.59754-19.72332,15.39814-.10986.08897-18.65864,13.56987-26.27307,17.40109-3.0199,1.51904-6.59614,1.98885-9.86017,1.98885Z" fill="#36344e" stroke-width="0"/><path d="m579.14847,197.92737h-65.1406l-5.9116,60.5939,25.86325,223.90184h33.25275l-13.3011-129.31624,53.94335,116.75409,29.558-20.6906-42.12015-108.99512s15.04822-94.95507,3.22502-118.60147c-11.8232-23.6464-19.36891-23.6464-19.36891-23.6464Z" fill="#36344e" stroke-width="0"/><polygon points="611.54926 201.62212 508.09627 201.62212 539.13217 67.87218 584.20812 67.87218 611.54926 201.62212" fill="#87ccef" stroke-width="0"/><path id="uuid-b13828aa-7dbb-4654-a51f-7f6b6cc292f7-108" d="m482.40729,65.23639c-1.65026-8.13701,1.37222-15.56892,6.75029-16.59942,5.37804-1.0305,11.074,4.73017,12.72372,12.87032.70531,3.24274.59384,6.60404-.32512,9.80263l6.54008,34.56354-16.90893,2.6722-4.65216-34.35723c-2.09939-2.62086-3.51483-5.69052-4.12788-8.95203h0Z" fill="#e69b9e" stroke-width="0"/><path d="m583.10358,67.87218h-39.75553l-26.79817,53.59634-10.10704-40.15985-22.20581,2.35814s5.25488,78.47187,28.22474,75.8215c22.96986-2.65037,76.53152-73.35803,70.64181-91.61612Z" fill="#87ccef" stroke-width="0"/><path id="uuid-fc7bb237-60d5-4a24-8159-aaf6584accef-109" d="m627.50108,271.69796c1.65026,8.13701-1.37222,15.56892-6.75029,16.59942-5.37804,1.0305-11.074-4.73017-12.72372-12.87032-.70531-3.24274-.59384-6.60404.32512-9.80263l-6.54008-34.56354,16.90893-2.6722,4.65216,34.35723c2.09939,2.62086,3.51483,5.69052,4.12788,8.95203,0,0,0,.00002,0,0Z" fill="#e69b9e" stroke-width="0"/><path d="m560.44734,67.87218s22.59128-.95632,23.76078,0c6.16113,5.03805,42.33324,186.70099,42.33324,186.70099h-22.90745s-43.18658-186.70099-43.18658-186.70099Z" fill="#87ccef" stroke-width="0"/><path d="m378.82042,527.40924c0,.64994.52194,1.17191,1.17191,1.17191h411.20153c.64994,0,1.17191-.52197,1.17191-1.17191s-.52197-1.17191-1.17191-1.17191h-411.20153c-.64997,0-1.17191.52197-1.17191,1.17191Z" fill="#3f3d58" stroke-width="0"/></svg>