<svg width="858" height="858" viewBox="0 0 858 858" fill="none" xmlns="http://www.w3.org/2000/svg">
  <g clip-path="url(#clip0_2011_1331)">
    <rect width="858" height="858" fill="white"/>
    <g clip-path="url(#clip1_2011_1331)">
      <path d="M691.063 544.69H690.77V544.904H691.063V544.69Z" fill="white"/>
      <path d="M349.913 216H94V349.627H349.913V216Z" fill="#87CCEF"/>
      <path d="M158.682 267.421H146.823V319.579H158.682V267.421Z" fill="#171717"/>
      <path d="M181.14 246.062H124.472V257.405H181.14V246.062Z" fill="#171717"/>
      <path d="M204.858 287.439H242.525V319.566H254.384V246.062H242.525V276.096H204.858V246.062H192.999V319.566H204.858V287.439Z" fill="#171717"/>
      <path d="M316.829 276.404H302.625V287.748H316.829V276.404Z" fill="#171717"/>
      <path d="M319.455 308.222H283.355V257.405H319.455V246.062H271.496V319.566H319.455V308.222Z" fill="#171717"/>
      <path d="M764 514.857H349.913V643H764V514.857Z" fill="#F9D85B"/>
      <path d="M512.87 566.036C512.87 552.749 504.214 543.685 488.925 543.685H459.847V614.172H471.223V554.559H487.732C496.991 554.559 501.414 559.292 501.414 566.143C501.414 572.995 497.085 577.822 487.732 577.822H482.64V588.602L502.231 614.172H516.22L495.183 587.288C506.358 585.17 512.897 577.621 512.897 566.036H512.87Z" fill="#171717"/>
      <path d="M558.471 542.479C537.835 542.479 521.942 558.193 521.942 578.936C521.942 599.678 537.848 615.393 558.471 615.393C579.093 615.393 594.905 599.678 594.999 578.936C594.905 558.193 579.093 542.479 558.471 542.479ZM558.471 604.505C544.186 604.505 533.413 593.631 533.413 578.922C533.413 564.213 544.186 553.339 558.471 553.339C572.755 553.339 583.435 564.213 583.435 578.922C583.435 593.631 572.661 604.505 558.471 604.505Z" fill="#171717"/>
      <path d="M653.771 585.371C653.771 599.061 646.629 604.505 636.86 604.505C627.092 604.505 619.95 599.074 619.95 585.371V543.685H608.372V586.082C608.372 605.711 620.646 615.379 636.847 615.379C653.048 615.379 665.322 605.711 665.322 586.082V543.685H653.744V585.371H653.771Z" fill="#171717"/>
      <path d="M710.225 543.685H692.913V554.559H709.823C719.083 554.559 723.411 559.801 723.411 566.948C723.411 574.095 719.083 579.431 709.823 579.431H692.712V554.706H681.335V614.172H692.712V590.305H710.225C725.622 590.305 734.975 580.638 734.975 566.841C734.975 553.044 725.622 543.685 710.225 543.685Z" fill="#171717"/>
      <path d="M432.404 576.709H405.805V586.376H432.229C432.31 585.961 432.363 585.572 432.417 585.304V576.709H432.404Z" fill="#171717"/>
      <path d="M432.404 585.317V586.39H432.216C432.055 587.302 431.854 588.388 431.694 588.951C431.171 590.855 430.447 592.611 429.496 594.22C425.53 600.951 418.093 604.826 409.302 604.826C394.107 604.826 384.646 593.55 384.646 579.243C384.646 564.146 395.018 553.365 409.396 553.365C419.352 553.365 427.205 558.393 431.037 566.452H443.218C438.796 552.159 425.905 542.491 409.503 542.491C388.666 542.491 373.176 558.005 373.176 579.042C373.176 600.08 388.572 615.392 408.498 615.392C421.081 615.392 430.635 609.144 433.958 600.08V614.172H443.821V576.709H432.39V585.304L432.404 585.317Z" fill="#171717"/>
      <path d="M432.403 585.317C432.363 585.586 432.296 585.974 432.216 586.39H432.403V585.317Z" fill="#171717"/>
      <path d="M764 349.627H94V514.871H764V349.627Z" fill="#171717"/>
      <path d="M662.334 463.665L708.148 404.025V386.795H646.24V400.82H692.309L644.029 463.665V477.69H710.734V463.665H662.334Z" fill="white"/>
      <path d="M726.373 449.692H710.065V463.717H726.373V449.692Z" fill="white"/>
      <path d="M231.216 386.795L219.785 430.291L212.911 462.498L205.903 430.291L194.486 386.795H175.793L164.376 430.291L157.502 462.377L150.615 430.291L139.064 386.795H124.016L148.149 477.69H166.574L175.271 444.839L183.967 404.199H186.312L195.129 444.839L203.826 477.69H222.13L246.264 386.795H231.216Z" fill="white"/>
      <path d="M275.597 409.267H260.938V477.702H275.597V409.267Z" fill="white"/>
      <path d="M311.549 400.82H328.808C347.113 400.82 360.473 413.799 360.473 432.249C360.473 450.699 347.099 463.678 328.808 463.678H311.603V477.703H328.688C355.032 477.703 375.146 458.489 375.146 432.249C375.146 406.009 355.166 386.795 328.688 386.795H296.89V463.624H311.549V400.82Z" fill="white"/>
      <path d="M448.591 463.665H407.198V386.795H392.525V477.69H448.591V463.665Z" fill="white"/>
      <path d="M510.365 386.795H491.672L456.497 477.69H472.068L481.287 453.273H520.737L529.956 477.69H545.527L510.352 386.795H510.365ZM486.62 439.382L501.025 401.33L515.43 439.382H486.62Z" fill="white"/>
      <path d="M628.593 415.623C628.593 398.487 617.431 386.795 597.706 386.795H575.261V400.713H560.199V477.69H574.859V443.794H588.875L614.831 477.69H632.867L605.746 443.016C620.151 440.294 628.593 430.546 628.593 415.623ZM574.859 430.814V400.82H596.138C608.077 400.82 613.786 406.921 613.786 415.757C613.786 424.593 608.211 430.814 596.138 430.814H574.859Z" fill="white"/>
      <path d="M311.602 463.624H311.549V463.664H311.602V463.624Z" fill="white"/>
      <path d="M275.597 386.795H260.938V401.464H275.597V386.795Z" fill="white"/>
    </g>
  </g>
  <defs>
    <clipPath id="clip0_2011_1331">
      <rect width="858" height="858" fill="white"/>
    </clipPath>
    <clipPath id="clip1_2011_1331">
      <rect width="670" height="427" fill="white" transform="translate(94 216)"/>
    </clipPath>
  </defs>
</svg>
