<svg xmlns="http://www.w3.org/2000/svg" width="453" height="605.97873" viewBox="0 0 453 605.97873" xmlns:xlink="http://www.w3.org/1999/xlink"><path d="m287.87012,128.72873c0,1.6499-.18994,3.33984-.58984,5.03003l-16.71045,71.11011c-2.36963,10.10986-12.5,16.36987-22.6001,13.97998l-66.96973-20.78027-3.27002-1.00977c-3.81006,2.75977-9.12988,4.02979-14.68994,3.0498-9.72021-1.71997-16.4502-9.62988-15.03027-17.67993,1.42041-8.04004,10.4502-13.16992,20.17041-11.45996,5.56006.97998,10.12988,3.98999,12.77002,7.88013l.0498.00977.16992.03003,58.29004,7.21021,4.8999-59.12012c.93018-11.30005,10.37012-19.98999,21.70996-19.98999,12.30029,0,21.80029,10.05005,21.80029,21.73999Z" fill="#ed9da0" stroke-width="0"/><path d="m287.87012,128.72873c0,1.6499-.18994,3.33984-.58984,5.03003l-13.71045,74.11011c-2.36963,10.10986-12.5,16.36987-22.6001,13.97998l-66.96973-18.62012,3-29h0l51,7,6.35986-54.25c.93018-11.30005,10.37012-19.98999,21.70996-19.98999,12.30029,0,21.80029,10.05005,21.80029,21.73999Z" fill="#2f2e43" stroke-width="0"/><polyline points="0 605.22873 35.54 605.22873 67.13 605.22873 68.4 605.22873 96.21 605.22873 286.66 605.22873 331.98 605.22873 453 605.22873" fill="none" stroke="#090814" stroke-miterlimit="10" stroke-width="1.5"/><rect x="362.67334" y="523.24119" width="20.09651" height="20.09651" transform="translate(-243.73839 325.21228) rotate(-36.39853)" fill="#ed9da0" stroke-width="0"/><path d="m394.85884,552.16432l-34.38426,25.3489c-2.93886,2.1666-6.38838,3.67095-9.9757,4.3504l-8.58524,1.62612c-1.7751.33623-3.61483-.38617-4.68689-1.84035-1.25726-1.7054-1.2216-4.06039.08672-5.72694l10.40969-13.25961,13.70291-28.25277.07919.07239c1.98056,1.8105,4.98882,4.53382,5.21443,4.6672,4.23189.93688,7.48162.41048,9.65971-1.5636,3.79908-3.44329,3.03327-10.19693,3.02509-10.26478l-.00623-.05191.04504-.02661c1.03484-.60932,2.03193-.74586,2.96364-.40587,1.97786.72184,3.00999,3.31815,3.15783,3.71556,1.93088.27055,6.95282,6.02858,7.35646,6.49459,2.88935.52345,4.87857,1.60797,5.91205,3.22369.9036,1.41255,1.07877,3.21386.5209,5.35394-.67114,2.57484-2.26763,4.89732-4.49535,6.53965Z" fill="#090814" stroke-width="0"/><rect x="216.03612" y="566.43896" width="20.09651" height="20.09651" fill="#ed9da0" stroke-width="0"/><path d="m232.70252,604.81598h-42.7182c-3.65118,0-7.3204-.83607-10.61105-2.41789l-7.87527-3.78558c-1.62831-.7827-2.68046-2.45587-2.68046-4.2625,0-2.11875,1.42615-3.99314,3.46816-4.55821l16.24708-4.49569,27.79474-14.60962.02079.10526c.51982,2.63255,1.32519,6.60967,1.42763,6.85091,2.85034,3.26529,5.77844,4.76998,8.70302,4.4735,5.10116-.51716,8.49234-6.40767,8.52603-6.46714l.02579-.04548.05204.00531c1.19453.12363,2.07811.60539,2.6263,1.43193,1.16366,1.75467.45379,4.45693.33696,4.86453,1.39364,1.36355,2.01904,8.97825,2.06741,9.59286,2.01505,2.13586,2.97264,4.1892,2.84573,6.10298-.11089,1.67317-1.03878,3.227-2.75774,4.61853-2.06811,1.67426-4.7313,2.59629-7.49896,2.59629Z" fill="#090814" stroke-width="0"/><polygon points="318.13149 252.29065 221.8157 252.29065 206.46283 571.81445 240.38201 571.81445 262.29716 426.57636 350.23676 542.76684 382.34202 513.71922 318.13149 426.57636 318.13149 252.29065" fill="#090814" stroke-width="0"/><path d="m293.33543,42.30249s26.53634-.05735,16.62315-25.62664c-9.91319-25.56928-28.37213-14.12053-28.37213-14.12053,0,0-7.77798,4.10845-6.17441,13.27486" fill="#090814" stroke-width="0"/><path d="m295.99127,54.56732c0-19.60413-15.89233-35.49646-35.49634-35.49646s-35.49658,15.89233-35.49658,35.49646c0,15.89905,10.45337,29.35486,24.86157,33.8739l6.8623,45.35022,34.98218-29.15173s-7.55737-9.62573-11.61011-20.47974c9.57886-6.35693,15.89697-17.23499,15.89697-29.59265Z" fill="#ed9da0" stroke-width="0"/><path d="m277.54895,84.55319s4.71383-18.07245-2.99384-26.38229c-7.6901-8.29089-8.68348,4.6094-8.68348,4.6094l-5.54892-1.20629s.96503-12.54538-9.89155-14.7167l6.99646-14.95796s-26.78617,5.20091-27.52446,2.60658c-5.80922-20.41329,49.61016-37.85105,64.91936-6.70795,23.81085,48.43778-17.27357,56.75521-17.27357,56.75521Z" fill="#090814" stroke-width="0"/><polygon points="296.98123 208.48931 312.71164 254.84465 223.71164 253.84465 236.98123 211.48931 296.98123 208.48931" fill="#ed9da0" stroke-width="0"/><path d="m288.94418,90.83519l-39.46782,13.7208-37.3123,192.62578,76.78013,9.37422,5.59855-29.36904,5.33723,29.36904h26.5964l-28.67411-191.55204c-1.2834-8.57353-4.29718-16.79645-8.85806-24.16876h0Z" fill="#87ccef" stroke-width="0"/><path d="m277.87849,317.16709l.68689-31.66203-18.4864-.40105-.68689,31.66203c-3.44909,3.20185-5.72592,8.1769-5.84829,13.81745-.21411,9.86949,6.2336,18.01383,14.40144,18.19103,8.16784.1772,14.96269-7.67985,15.17681-17.54935.12237-5.64055-1.93671-10.70966-5.24355-14.05808Z" fill="#ed9da0" stroke-width="0"/><polyline points="252.3569 158.6972 252.3569 312.16591 284.46217 312.16591 293.95062 159.99269" fill="#090814" stroke-width="0"/><path d="m317.00827,321.47701c-.56348,0-1.12695-.02002-1.69238-.06299-6.74609-.50684-12.55078-4.12402-17.25391-10.74951-17.69922-24.9397-53.38867-107.47241-53.38867-130.94214,0-22.42822,4.88281-73.83154,5.05176-74.60181h0l36.0459-19.95776c17.29297,4.05981,29.33008,19.896,28.62305,37.65503-1.72754,43.38965,2.7207,142.30005,31.8252,183.28906l.24023.33813-.28711.29858c-.60156.62305-14.38672,14.7334-29.16406,14.7334Z" fill="#090814" stroke-width="0"/><path d="m143.13214,265.48278c-5.32158,0-11.14268-1.30637-16.86774-2.59357-4.24574-.96058-7.99201-1.19111-11.00824-1.38323-4.55313-.28816-8.16491-.51869-10.16293-3.18913-1.97879-2.63197-1.97879-7.1083,0-15.94557,2.63197-11.73823,8.49153-30.4695,15.67664-45.8772,9.25998-19.88397,18.17412-29.02863,26.47352-27.16517,11.12351,2.49748,15.56137,21.05585,17.21354,31.91037,2.30541,15.13872,2.11328,33.1207-.49952,44.74373h0c-3.45806,15.40765-11.39244,19.48055-20.82532,19.48055h0l.00006.01923Zm2.03642-92.92629c-6.10926,0-13.60176,8.91419-21.26721,25.41691-7.06984,15.17712-12.85254,33.62022-15.42688,45.18556-1.6714,7.41563-1.84429,11.4693-.59555,13.12147,1.05661,1.40246,3.80391,1.57536,7.62699,1.80589,3.13149.19213,7.01221.44189,11.52693,1.4601,17.92436,4.01521,29.14396,5.47531,33.58182-14.2934,4.74526-21.19034,1.13347-69.1232-14.10127-72.54285-.44189-.09603-.88372-.15367-1.3256-.15367h-.01923Z" fill="#dfdfe0" stroke-width="0"/><polygon points="215.67494 407.91723 44.84582 409.03153 18.29543 396.83218 33.76071 239.08607 49.32208 239.87375 209.37355 248.01949 215.67494 407.91723" fill="#e2e3e4" stroke-width="0"/><polygon points="44.84582 409.03153 18.29543 396.83218 33.76071 239.08607 49.32208 239.87375 44.84582 409.03153" fill="#272223" isolation="isolate" opacity=".2" stroke-width="0"/><path d="m54.32848,215.70318l-.24519-.24519-.24519.24519c-11.93096-11.92115-31.26667-11.90644-43.18783.02452-11.92116,11.93587-12.16144,31.51187-.23048,43.43302h0l43.69292,43.64879,43.6635-43.70273h0c11.92115-11.93587,11.67106-31.51187-.255-43.43302-11.93096-11.92115-31.26667-11.90644-43.18783.02452h0l-.0049.00489Z" fill="#87ccef" stroke-width="0"/></svg>